PathFileType	4	(X/Y/Z)	C:\Users\italobelli\Desktop\GitHub\PTbot_officialCBL\Personal_Results\FLX21_noisy1.trc
DataRate	CameraRate	NumFrames	NumMarkers	Units	OrigDataRate	OrigDataStartFrame	OrigNumFrames
107.000000	107.000000	30	9	m	107.000000	376	750
Frame#	Time		gu		centelbow		EpL		centpxt8		centijc7		ij		ts		aa		ai
			X1	Y1	Z1	X2	Y2	Z2	X3	Y3	Z3	X4	Y4	Z4	X5	Y5	Z5	X6	Y6	Z6	X7	Y7	Z7	X8	Y8	Z8	X9	Y9	Z9

376	3.5047	-0.082577	0.062787	0.1158	0.12181	0.15735	0.2264	0.10497	0.18469	0.22324	-0.046816	-0.15316	-0.008669	-0.046816	0.031938	-0.008669	0	0	0	-0.14885	-0.011573	0.061006	-0.1098	0.078584	0.1286	-0.12119	-0.080833	0.14656
377	3.514	-0.082326	0.062795	0.11615	0.12295	0.15472	0.22719	0.10632	0.18226	0.22422	-0.046816	-0.15316	-0.008669	-0.046816	0.031938	-0.008669	0	0	0	-0.14892	-0.011293	0.060967	-0.10955	0.078393	0.12894	-0.12149	-0.081057	0.14614
378	3.5234	-0.082062	0.062784	0.11652	0.12408	0.15202	0.22798	0.10766	0.17975	0.22523	-0.046816	-0.15316	-0.008669	-0.046816	0.031938	-0.008669	0	0	0	-0.14899	-0.011	0.060909	-0.10929	0.078189	0.12928	-0.12178	-0.081284	0.14568
379	3.5327	-0.081784	0.062753	0.11689	0.12519	0.14924	0.22879	0.109	0.17716	0.22626	-0.046816	-0.15316	-0.008669	-0.046816	0.031938	-0.008669	0	0	0	-0.14906	-0.010693	0.060832	-0.10904	0.077973	0.12963	-0.12207	-0.081516	0.14518
380	3.5421	-0.081495	0.062703	0.11727	0.12628	0.14639	0.22962	0.11033	0.17449	0.22731	-0.046816	-0.15316	-0.008669	-0.046816	0.031938	-0.008669	0	0	0	-0.14912	-0.010374	0.060739	-0.10878	0.077744	0.12998	-0.12236	-0.081751	0.14465
381	3.5514	-0.081194	0.062635	0.11766	0.12735	0.14347	0.23046	0.11165	0.17174	0.22838	-0.046816	-0.15316	-0.008669	-0.046816	0.031938	-0.008669	0	0	0	-0.14918	-0.010042	0.060629	-0.10852	0.077503	0.13033	-0.12264	-0.081988	0.14407
382	3.5607	-0.080882	0.062549	0.11805	0.12839	0.14048	0.2313	0.11295	0.16892	0.22947	-0.046816	-0.15316	-0.008669	-0.046816	0.031938	-0.008669	0	0	0	-0.14923	-0.0096991	0.060503	-0.10826	0.077251	0.13069	-0.12293	-0.082229	0.14347
383	3.5701	-0.08056	0.062446	0.11845	0.12942	0.13743	0.23216	0.11425	0.16603	0.23057	-0.046816	-0.15316	-0.008669	-0.046816	0.031938	-0.008669	0	0	0	-0.14928	-0.0093449	0.060363	-0.10799	0.076987	0.13105	-0.12321	-0.082472	0.14283
384	3.5794	-0.080227	0.062326	0.11886	0.13043	0.13431	0.23302	0.11554	0.16307	0.23169	-0.046816	-0.15316	-0.008669	-0.046816	0.031938	-0.008669	0	0	0	-0.14933	-0.00898	0.060208	-0.10773	0.076712	0.13141	-0.12349	-0.082718	0.14215
385	3.5888	-0.079885	0.062188	0.11927	0.13142	0.13113	0.2339	0.11681	0.16005	0.23282	-0.046816	-0.15316	-0.008669	-0.046816	0.031938	-0.008669	0	0	0	-0.14937	-0.0086049	0.06004	-0.10746	0.076426	0.13178	-0.12376	-0.082965	0.14145
386	3.5981	-0.079534	0.062035	0.11968	0.13238	0.12789	0.23477	0.11806	0.15696	0.23397	-0.046816	-0.15316	-0.008669	-0.046816	0.031938	-0.008669	0	0	0	-0.1494	-0.0082201	0.059859	-0.1072	0.07613	0.13214	-0.12404	-0.083214	0.14072
387	3.6075	-0.079175	0.061865	0.12011	0.13332	0.1246	0.23566	0.11931	0.15381	0.23512	-0.046816	-0.15316	-0.008669	-0.046816	0.031938	-0.008669	0	0	0	-0.14944	-0.0078261	0.059666	-0.10693	0.075823	0.13251	-0.12431	-0.083464	0.13996
388	3.6168	-0.078808	0.06168	0.12053	0.13424	0.12125	0.23654	0.12053	0.1506	0.23628	-0.046816	-0.15316	-0.008669	-0.046816	0.031938	-0.008669	0	0	0	-0.14947	-0.0074233	0.059462	-0.10666	0.075506	0.13289	-0.12458	-0.083715	0.13917
389	3.6262	-0.078433	0.06148	0.12096	0.13513	0.11785	0.23743	0.12174	0.14734	0.23745	-0.046816	-0.15316	-0.008669	-0.046816	0.031938	-0.008669	0	0	0	-0.14949	-0.0070122	0.059248	-0.1064	0.07518	0.13326	-0.12485	-0.083966	0.13836
390	3.6355	-0.078052	0.061264	0.1214	0.13599	0.1144	0.23832	0.12293	0.14402	0.23862	-0.046816	-0.15316	-0.008669	-0.046816	0.031938	-0.008669	0	0	0	-0.14951	-0.0065933	0.059024	-0.10613	0.074844	0.13364	-0.12512	-0.084218	0.13752
391	3.6449	-0.077665	0.061035	0.12184	0.13684	0.11091	0.2392	0.1241	0.14065	0.2398	-0.046816	-0.15316	-0.008669	-0.046816	0.031938	-0.008669	0	0	0	-0.14953	-0.006167	0.058792	-0.10586	0.074499	0.13402	-0.12538	-0.08447	0.13666
392	3.6542	-0.077272	0.060792	0.12228	0.13765	0.10737	0.24009	0.12526	0.13723	0.24097	-0.046816	-0.15316	-0.008669	-0.046816	0.031938	-0.008669	0	0	0	-0.14955	-0.005734	0.058551	-0.10559	0.074145	0.1344	-0.12565	-0.084722	0.13578
393	3.6636	-0.076873	0.060535	0.12272	0.13844	0.10379	0.24097	0.12639	0.13377	0.24215	-0.046816	-0.15316	-0.008669	-0.046816	0.031938	-0.008669	0	0	0	-0.14956	-0.0052945	0.058303	-0.10532	0.073783	0.13478	-0.12591	-0.084973	0.13487
394	3.6729	-0.07647	0.060264	0.12317	0.1392	0.10018	0.24185	0.1275	0.13026	0.24332	-0.046816	-0.15316	-0.008669	-0.046816	0.031938	-0.008669	0	0	0	-0.14956	-0.0048492	0.058048	-0.10505	0.073412	0.13516	-0.12617	-0.085223	0.13395
395	3.6822	-0.076063	0.059982	0.12362	0.13994	0.096521	0.24273	0.12859	0.12671	0.24449	-0.046816	-0.15316	-0.008669	-0.046816	0.031938	-0.008669	0	0	0	-0.14956	-0.0043984	0.057787	-0.10479	0.073033	0.13554	-0.12643	-0.085473	0.13301
396	3.6916	-0.075652	0.059686	0.12408	0.14064	0.092833	0.24359	0.12965	0.12312	0.24566	-0.046816	-0.15316	-0.008669	-0.046816	0.031938	-0.008669	0	0	0	-0.14956	-0.0039428	0.057522	-0.10452	0.072647	0.13593	-0.12669	-0.08572	0.13206
397	3.7009	-0.075239	0.059379	0.12453	0.14132	0.089112	0.24445	0.13069	0.11949	0.24682	-0.046816	-0.15316	-0.008669	-0.046816	0.031938	-0.008669	0	0	0	-0.14956	-0.0034827	0.057252	-0.10425	0.072253	0.13631	-0.12695	-0.085966	0.13109
398	3.7103	-0.074822	0.05906	0.12499	0.14197	0.085363	0.2453	0.13171	0.11583	0.24796	-0.046816	-0.15316	-0.008669	-0.046816	0.031938	-0.008669	0	0	0	-0.14955	-0.0030186	0.056978	-0.10398	0.071851	0.1367	-0.1272	-0.08621	0.1301
399	3.7196	-0.074404	0.05873	0.12545	0.14259	0.081586	0.24614	0.1327	0.11213	0.2491	-0.046816	-0.15316	-0.008669	-0.046816	0.031938	-0.008669	0	0	0	-0.14954	-0.002551	0.056702	-0.10372	0.071443	0.13708	-0.12746	-0.086451	0.1291
400	3.729	-0.073984	0.058389	0.12591	0.14317	0.077785	0.24697	0.13366	0.10841	0.25023	-0.046816	-0.15316	-0.008669	-0.046816	0.031938	-0.008669	0	0	0	-0.14952	-0.0020805	0.056424	-0.10345	0.071029	0.13747	-0.12771	-0.08669	0.12809
401	3.7383	-0.073564	0.058038	0.12637	0.14373	0.073962	0.24779	0.13459	0.10466	0.25134	-0.046816	-0.15316	-0.008669	-0.046816	0.031938	-0.008669	0	0	0	-0.1495	-0.0016073	0.056144	-0.10319	0.070607	0.13786	-0.12797	-0.086926	0.12707
402	3.7477	-0.073143	0.057677	0.12683	0.14426	0.070119	0.24859	0.1355	0.10089	0.25244	-0.046816	-0.15316	-0.008669	-0.046816	0.031938	-0.008669	0	0	0	-0.14948	-0.0011322	0.055864	-0.10292	0.07018	0.13824	-0.12822	-0.087158	0.12604
403	3.757	-0.072722	0.057306	0.12729	0.14475	0.06626	0.24937	0.13637	0.097089	0.25352	-0.046816	-0.15316	-0.008669	-0.046816	0.031938	-0.008669	0	0	0	-0.14946	-0.00065547	0.055584	-0.10266	0.069747	0.13863	-0.12847	-0.087387	0.125
404	3.7664	-0.072302	0.056926	0.12775	0.14521	0.062385	0.25014	0.13721	0.093273	0.25458	-0.046816	-0.15316	-0.008669	-0.046816	0.031938	-0.008669	0	0	0	-0.14943	-0.00017765	0.055306	-0.1024	0.069309	0.13902	-0.12872	-0.087611	0.12396
405	3.7757	-0.071883	0.056537	0.12822	0.14563	0.058499	0.2509	0.13803	0.089439	0.25562	-0.046816	-0.15316	-0.008669	-0.046816	0.031938	-0.008669	0	0	0	-0.14939	0.00030078	0.055029	-0.10214	0.068865	0.1394	-0.12897	-0.087832	0.12291
